# AST/ASF file generated using VICON BodyLanguage
# -----------------------------------------------
:version 1.10
:name VICON
:units
  mass 1.0
  length 0.45
  angle deg
:documentation
   .ast/.asf automatically generated from VICON data using
   VICON BodyBuilder and BodyLanguage model FoxedUp or BRILLIANT.MOD
:root
   order TX TY TZ RX RY RZ
   axis XYZ
   position 0 0 0  
   orientation 0 0 0 
:bonedata
  begin
     id 1 
     name lhipjoint
     direction 0.440178 -0.822639 0.359871 
     length 2.53113 
     axis 0 0 0  XYZ
  end
  begin
     id 2 
     name lfemur
     direction 0.34202 -0.939693 0  
     length 7.88132  
     axis 0 0 20  XYZ
    dof rx ry rz
    limits (-160.0 20.0)
           (-70.0 70.0)
           (-60.0 70.0)
  end
  begin
     id 3 
     name ltibia
     direction 0.34202 -0.939693 0   
     length 8.43783   
     axis 0 0 20   XYZ
    dof rx
    limits (-10.0 170.0)
  end
  begin
     id 4 
     name lfoot
     direction 0.0886351 -0.243523 0.965837   
     length 2.63414   
     axis -90 7.62852e-016 20   XYZ
    dof rx rz
    limits (-45.0 90.0)
           (-70.0 20.0)
  end
  begin
     id 5 
     name ltoes
     direction 1.53703e-011 -4.21717e-011 1   
     length 1.31427   
     axis -90 7.62852e-016 20   XYZ
    dof rx
    limits (-90.0 20.0)
  end
  begin
     id 6 
     name rhipjoint
     direction -0.399779 -0.839773 0.367367   
     length 2.47948  
     axis 0 0 0  XYZ 
  end
  begin
     id 7 
     name rfemur
     direction -0.34202 -0.939693 0   
     length 7.74806   
     axis 0 0 -20   XYZ
    dof rx ry rz
    limits (-160.0 20.0)
           (-70.0 70.0)
           (-70.0 60.0)
  end
  begin
     id 8 
     name rtibia
     direction -0.34202 -0.939693 0   
     length 8.74432   
     axis 0 0 -20   XYZ
    dof rx
    limits (-10.0 170.0)
 end
 begin
     id 9 
     name rfoot
     direction -0.108514 -0.298139 0.948334   
     length 2.66102  
     axis -90 -7.62852e-016 -20   XYZ
    dof rx rz
    limits (-45.0 90.0)
           (-20.0 70.0)
  end
  begin
     id 10 
     name rtoes
     direction -1.53392e-011 -4.22077e-011 1   
     length 1.31983   
     axis -90 -7.62852e-016 -20   XYZ
    dof rx
    limits (-90.0 20.0)
  end
  begin
     id 11 
     name lowerback
     direction 0.0113257 0.999866 0.0118602   
     length 2.58694   
     axis 0 0 0   XYZ
    dof rx ry rz
    limits (-20.0 45.0)
           (-30.0 30.0)
           (-30.0 30.0)
  end
  begin
     id 12 
     name upperback
     direction -0.0164747 0.995193 -0.0965375   
     length 2.52368   
     axis 0 0 0   XYZ
    dof rx ry rz
    limits (-20.0 45.0)
           (-30.0 30.0)
           (-30.0 30.0)
  end
  begin
     id 13 
     name thorax
     direction -0.0194301 0.99433 -0.104552   
     length 2.56099   
     axis 0 0 0   XYZ
    dof rx ry rz
    limits (-20.0 45.0)
           (-30.0 30.0)
           (-30.0 30.0)
  end
  begin
     id 14 
     name lowerneck
     direction 0.0148543 0.995587 -0.092657   
     length 1.71582   
     axis 0 0 0   XYZ
    dof rx ry rz
    limits (-20.0 45.0)
           (-30.0 30.0)
           (-30.0 30.0)
  end
  begin
     id 15 
     name upperneck
     direction -0.0135467 0.993656 -0.111639   
     length 1.68937   
     axis 0 0 0   XYZ
    dof rx ry rz
    limits (-20.0 45.0)
           (-30.0 30.0)
           (-30.0 30.0)
  end
  begin
     id 16
     name head
     direction -0.00615349 0.999547 -0.029448  
     length 1.7462  
     axis 0 0 0   XYZ
    dof rx ry rz
    limits (-20.0 45.0)
           (-30.0 30.0)
           (-30.0 30.0)
  end
  begin
     id 17 
     name lclavicle
     direction 0.988267 0.149885 0.0293713  
     length 4.47222  
     axis 0 0 0   XYZ
    dof ry rz
    limits (-20.0 10.0)
           (0.0 20.0)
  end
  begin
     id 18 
     name lhumerus
     direction 1 -4.48986e-011 -1.14833e-027   
     length 5.37148   
     axis 180 -30 -90   XYZ
    dof rx ry rz
    limits (-60.0 90.0)
           (-90.0 90.0)
           (-90.0 90.0)
  end
  begin
     id 19
     name lradius
     direction 0.999998 0.00170963 -0.000987055   
     length 3.94212   
     axis 180 -30 -90   XYZ
    dof rx
    limits (-10.0 170.0)
  end
  begin
     id 20
     name lwrist
     direction 0.999998 7.53149e-005 -0.00194706   
     length 1.97106   
     axis 4.65056e-015 90 90   XYZ
    dof ry
    limits (-180.0 0.0)
 end
  begin
     id 21 
     name lhand
     direction 1 -4.48973e-011 -1.31746e-026   
     length 1.17917   
     axis 8.4065e-015 90 90   XYZ
    dof rx rz
    limits (-90.0 90.0)
           (-45.0 45.0)
  end
  begin
     id 22 
     name lfingers
     direction 1 -4.49107e-011 -2.63492e-026   
     length 0.950679   
     axis 1.6813e-014 90 90   XYZ
    dof rx
    limits (0.0 90.0)
  end
  begin
     id 23
     name lthumb
     direction 0.707107 -6.35048e-011 0.707107   
     length 1.36499   
     axis -90 45 2.85299e-015   XYZ
    dof rx rz
    limits (-45.0 45.0)
           (-45.0 45.0)
  end
  begin
     id 24 
     name rclavicle
     direction -0.996699 0.0642895 -0.0495725   
     length 4.62611  
     axis 0 0 0   XYZ 
    dof ry rz
    limits (-10.0 20.0)
           (-20.0 0.0)
  end
  begin
     id 25 
     name rhumerus
     direction -1 -4.48919e-011 -2.41059e-027  
     length 5.4981   
     axis 180 30 90   XYZ
    dof rx ry rz
    limits (-90.0 60.0)
           (-90.0 90.0)
           (-90.0 90.0)
  end
  begin
     id 26 
     name rradius
     direction -0.999999 0.00118101 -0.000681858   
     length 3.48381   
     axis 180 30 90   XYZ
    dof rx
    limits (-10.0 170.0)
  end
  begin
     id 27 
     name rwrist
     direction -0.999999 0.000321823 -0.00132288   
     length 1.7419   
     axis 4.65056e-015 -90 -90   XYZ
    dof ry
    limits (-180.0 0.0)
  end
  begin
     id 28
     name rhand
     direction -1 -4.49022e-011 -1.31746e-026   
     length 1.34932   
     axis 8.4065e-015 -90 -90   XYZ
    dof rx rz
    limits (-90.0 90.0)
           (-45.0 45.0)
  end
  begin
     id 29
     name rfingers
     direction -1 -4.49178e-011 -2.63492e-026   
     length 1.08785   
     axis 1.6813e-014 -90 -90   XYZ
    dof rx
    limits (0.0 90.0)
  end
  begin
     id 30
     name rthumb
     direction -0.707107 -6.34713e-011 0.707107   
     length 1.56195   
     axis -90 -45 -2.85299e-015   XYZ
    dof rx rz
    limits (-45.0 45.0)
           (-45.0 45.0)
  end
:hierarchy
  begin
    root lhipjoint rhipjoint lowerback
    lhipjoint lfemur
    lfemur ltibia
    ltibia lfoot
    lfoot ltoes
    rhipjoint rfemur
    rfemur rtibia
    rtibia rfoot
    rfoot rtoes
    lowerback upperback
    upperback thorax
    thorax lowerneck lclavicle rclavicle
    lowerneck upperneck
    upperneck head
    lclavicle lhumerus
    lhumerus lradius
    lradius lwrist
    lwrist lhand lthumb
    lhand lfingers
    rclavicle rhumerus
    rhumerus rradius
    rradius rwrist
    rwrist rhand rthumb
    rhand rfingers
  end

#!OML:ASF X:\für Bonn\!DataBase\2005_08_10_Bjorn_Final\c3d\bjorn.ASF
:FULLY-SPECIFIED
:DEGREES
16
root -23.0383 18.9774 -28.7268 -173.864 -184.513 -178.733
lowerback -6.83667 3.29109 -4.95285
upperback 7.93211 5.70427 -5.3565
thorax 12.5999 2.59938 -2.09141
lowerneck -1.9569 0.930876 -0.246718
upperneck 15.7093 1.01372 2.18719
head 5.02188 0.626744 0.769623
rclavicle 6.04305e-014 -6.36111e-015
rhumerus -36.1919 -2.048 -98.2723
rradius 55.2693
rwrist -3.01616
rhand -17.3728 16.1342
rfingers 7.12502
rthumb 8.87557 -13.6591
lclavicle 6.04305e-014 -6.36111e-015
lhumerus -37.6906 -15.0351 89.6829
lradius 52.7315
lwrist -19.371
lhand -24.0119 -14.4586
lfingers 7.12502
lthumb 2.46587 15.5069
rfemur -9.97547 -16.1148 17.359
rtibia 33.5693
rfoot -27.5505 2.00145
rtoes -19.0211
lfemur -13.9442 11.6029 -22.1298
ltibia 35.197
lfoot -20.6605 -10.3987
ltoes 1.11898
17
root -23.0299 18.974 -28.6909 -173.758 -184.471 -178.73
lowerback -6.83962 3.29806 -5.04549
upperback 7.94152 5.73727 -5.45008
thorax 12.6174 2.61224 -2.13737
lowerneck -2.07983 0.859787 -0.234818
upperneck 15.714 0.890746 2.36366
head 5.04475 0.578572 0.817173
rclavicle -2.54444e-014 -3.49861e-014
rhumerus -36.1421 -2.07782 -98.3547
rradius 55.0313
rwrist -2.8732
rhand -17.4715 16.4162
rfingers 7.12502
rthumb 8.7804 -13.3811
lclavicle -2.54444e-014 -3.49861e-014
lhumerus -37.5353 -15.4362 89.7688
lradius 52.6021
lwrist -19.1216
lhand -23.9749 -14.8169
lfingers 7.12502
lthumb 2.50161 15.1482
rfemur -10.0319 -16.0491 17.3432
rtibia 33.6834
rfoot -27.6193 1.91501
rtoes -19.1058
lfemur -13.9107 11.6155 -22.1488
ltibia 35.163
lfoot -20.8071 -10.4317
ltoes 0.989963
18
root -23.0204 18.9678 -28.6541 -173.666 -184.396 -178.732
lowerback -6.82983 3.31166 -5.13185
upperback 7.94164 5.77434 -5.52825
thorax 12.6147 2.62702 -2.16986
lowerneck -2.17815 0.78865 -0.267148
upperneck 15.7368 0.771569 2.53415
head 5.06901 0.529552 0.870301
rclavicle 3.89618e-014 -5.24792e-014
rhumerus -36.154 -2.039 -98.4226
rradius 54.8098
rwrist -2.87902
rhand -17.5605 16.6874
rfingers 7.12502
rthumb 8.69451 -13.1136
lclavicle 3.89618e-014 -5.24792e-014
lhumerus -37.3954 -15.8205 89.8646
lradius 52.5043
lwrist -18.6788
lhand -23.7934 -15.1193
lfingers 7.12502
lthumb 2.67687 14.8437
rfemur -10.0825 -16.0102 17.3046
rtibia 33.8154
rfoot -27.6437 1.93674
rtoes -19.0356
lfemur -13.8584 11.6483 -22.169
ltibia 35.1306
lfoot -20.9665 -10.4543
ltoes 0.776899
19
root -23.0102 18.9638 -28.6172 -173.57 -184.32 -178.712
lowerback -6.78588 3.32149 -5.23043
upperback 7.91845 5.80269 -5.61327
thorax 12.5631 2.63807 -2.2064
lowerneck -2.24557 0.726084 -0.279466
upperneck 15.7702 0.666293 2.67791
head 5.09158 0.486857 0.912349
rclavicle -1.59028e-015 -5.24792e-014
rhumerus -36.1765 -2.00755 -98.4931
rradius 54.5674
rwrist -2.93421
rhand -17.5863 16.8648
rfingers 7.12502
rthumb 8.66957 -12.9371
lclavicle -1.59028e-015 -5.24792e-014
lhumerus -37.2673 -16.1632 89.9456
lradius 52.4305
lwrist -18.2322
lhand -23.5871 -15.2431
lfingers 7.12502
lthumb 2.87614 14.7172
rfemur -10.1442 -15.9656 17.2416
rtibia 33.9734
rfoot -27.6814 2.00261
rtoes -18.7649
lfemur -13.7995 11.6687 -22.2203
ltibia 35.0891
lfoot -21.1462 -10.4061
ltoes 0.516411
20
root -22.9984 18.9591 -28.5797 -173.475 -184.254 -178.69
lowerback -6.75034 3.33066 -5.29859
upperback 7.91186 5.83115 -5.71711
thorax 12.5417 2.6527 -2.28002
lowerneck -2.30963 0.646321 -0.266931
upperneck 15.7516 0.536743 2.8202
head 5.09822 0.43325 0.948199
rclavicle -1.82882e-014 -1.90833e-014
rhumerus -36.1549 -1.98492 -98.6116
rradius 54.2639
rwrist -3.05766
rhand -17.5874 16.9742
rfingers 7.12502
rthumb 8.66856 -12.8278
lclavicle -1.82882e-014 -1.90833e-014
lhumerus -37.0853 -16.5132 89.9566
lradius 52.3842
lwrist -17.771
lhand -23.4106 -15.2523
lfingers 7.12502
lthumb 3.04658 14.7057
rfemur -10.2227 -15.9253 17.1725
rtibia 34.1514
rfoot -27.7246 1.99933
rtoes -18.6752
lfemur -13.7395 11.6417 -22.2764
ltibia 35.0541
lfoot -21.3214 -10.3727
ltoes 0.270523
21
root -22.9862 18.9527 -28.5427 -173.379 -184.174 -178.65
lowerback -6.7141 3.3284 -5.3879
upperback 7.9064 5.84543 -5.81155
thorax 12.5178 2.65801 -2.33419
lowerneck -2.40894 0.58967 -0.259604
upperneck 15.7785 0.443859 2.91895
head 5.12462 0.395189 0.973618
rclavicle 1.11319e-014 2.22639e-014
rhumerus -36.1237 -1.92599 -98.7078
rradius 53.8938
rwrist -3.19191
rhand -17.5942 17.0552
rfingers 7.12502
rthumb 8.66193 -12.7471
lclavicle 1.11319e-014 2.22639e-014
lhumerus -36.8817 -16.8057 89.9643
lradius 52.3436
lwrist -17.3181
lhand -23.2745 -15.1538
lfingers 7.12502
lthumb 3.178 14.8022
rfemur -10.3202 -15.8708 17.0799
rtibia 34.3663
rfoot -27.7807 2.04764
rtoes -18.5329
lfemur -13.6763 11.6417 -22.3603
ltibia 35.0138
lfoot -21.5383 -10.2925
ltoes -0.17696
22
root -22.9741 18.9462 -28.5051 -173.305 -184.098 -178.628
lowerback -6.65466 3.3266 -5.46221
upperback 7.91366 5.8572 -5.9051
thorax 12.4957 2.66354 -2.3974
lowerneck -2.53423 0.52646 -0.216056
upperneck 15.8144 0.339869 3.00947
head 5.15871 0.353618 0.989996
rclavicle -4.13472e-014 -3.18055e-015
rhumerus -36.0609 -1.87742 -98.8292
rradius 53.4694
rwrist -3.34473
rhand -17.613 17.1197
rfingers 7.12502
rthumb 8.64385 -12.6834
lclavicle -4.13472e-014 -3.18055e-015
lhumerus -36.6397 -17.1011 89.9253
lradius 52.3132
lwrist -16.7521
lhand -23.1309 -15.06
lfingers 7.12502
lthumb 3.31672 14.8939
rfemur -10.4108 -15.7575 17.0124
rtibia 34.612
rfoot -27.8355 2.01376
rtoes -18.2785
lfemur -13.5981 11.61 -22.416
ltibia 34.9819
lfoot -21.731 -10.2072
ltoes -0.540798
23
root -22.9608 18.9386 -28.467 -173.241 -183.997 -178.589
lowerback -6.58998 3.3219 -5.53472
upperback 7.92545 5.86474 -6.00046
thorax 12.4761 2.66732 -2.46468
lowerneck -2.61414 0.470965 -0.184254
upperneck 15.7869 0.253701 3.06411
head 5.16526 0.316914 0.997399
rclavicle 3.18055e-015 -4.6118e-014
rhumerus -36.0031 -1.78519 -98.9512
rradius 53.0035
rwrist -3.45768
rhand -17.6467 17.1941
rfingers 7.12502
rthumb 8.61126 -12.6103
lclavicle 3.18055e-015 -4.6118e-014
lhumerus -36.403 -17.3121 89.8802
lradius 52.3211
lwrist -16.2021
lhand -23.0089 -14.9501
lfingers 7.12502
lthumb 3.43451 15.002
rfemur -10.5204 -15.6751 16.9064
rtibia 34.9094
rfoot -27.8796 2.04092
rtoes -17.9995
lfemur -13.4941 11.5754 -22.5018
ltibia 34.9469
lfoot -21.9691 -10.0722
ltoes -1.06132
24
root -22.9473 18.9314 -28.4281 -173.178 -183.896 -178.547
lowerback -6.50639 3.3182 -5.61269
upperback 7.92036 5.87097 -6.10238
thorax 12.4254 2.6711 -2.53724
lowerneck -2.69101 0.408985 -0.125207
upperneck 15.7954 0.15662 3.11367
head 5.18279 0.276529 0.998301
rclavicle -5.80451e-014 -1.27222e-014
rhumerus -35.9692 -1.73402 -99.0822
rradius 52.5001
rwrist -3.63232
rhand -17.6145 17.2316
rfingers 7.12502
rthumb 8.64236 -12.5715
lclavicle -5.80451e-014 -1.27222e-014
lhumerus -36.2233 -17.5473 89.8022
lradius 52.398
lwrist -15.6354
lhand -22.9139 -14.8132
lfingers 7.12502
lthumb 3.52628 15.1374
rfemur -10.6533 -15.4745 16.8092
rtibia 35.2599
rfoot -27.9589 1.99517
rtoes -17.5511
lfemur -13.3882 11.5922 -22.5852
ltibia 34.9138
lfoot -22.1955 -9.99681
ltoes -1.59695
25
root -22.9331 18.9244 -28.3884 -173.103 -183.803 -178.484
lowerback -6.44032 3.297 -5.70983
upperback 7.93383 5.85787 -6.19034
thorax 12.4034 2.66229 -2.58641
lowerneck -2.79411 0.360882 -0.095467
upperneck 15.7826 0.0834327 3.14316
head 5.1977 0.244795 0.998952
rclavicle 9.54166e-015 -9.54166e-015
rhumerus -35.9004 -1.66854 -99.1996
rradius 52.0003
rwrist -3.74995
rhand -17.5768 17.2215
rfingers 7.12502
rthumb 8.67873 -12.5801
lclavicle 9.54166e-015 -9.54166e-015
lhumerus -35.969 -17.639 89.6896
lradius 52.4692
lwrist -15.2316
lhand -22.8164 -14.7705
lfingers 7.12502
lthumb 3.62042 15.1785
rfemur -10.8435 -15.3113 16.6858
rtibia 35.6828
rfoot -28.0235 1.95761
rtoes -17.1358
lfemur -13.2936 11.5638 -22.7019
ltibia 34.8717
lfoot -22.4151 -9.85329
ltoes -2.2147
26
root -22.9188 18.9149 -28.3475 -173.062 -183.657 -178.425
lowerback -6.36066 3.29732 -5.79173
upperback 7.95616 5.87261 -6.28992
thorax 12.3869 2.66891 -2.65296
lowerneck -2.89957 0.312917 -0.0581858
upperneck 15.7689 0.00722667 3.18988
head 5.21281 0.213133 1.0035
rclavicle 1.27222e-014 3.02153e-014
rhumerus -35.8304 -1.6381 -99.3395
rradius 51.4571
rwrist -3.98512
rhand -17.5427 17.2352
rfingers 7.12502
rthumb 8.71167 -12.5651
lclavicle 1.27222e-014 3.02153e-014
lhumerus -35.7176 -17.6727 89.5092
lradius 52.5876
lwrist -14.9662
lhand -22.6391 -14.7972
lfingers 7.12502
lthumb 3.79159 15.1489
rfemur -11.0285 -15.0877 16.5499
rtibia 36.1716
rfoot -28.0593 1.91699
rtoes -16.7964
lfemur -13.1433 11.5401 -22.8154
ltibia 34.8219
lfoot -22.6747 -9.65586
ltoes -3.01527
27
root -22.9039 18.9071 -28.3067 -173.034 -183.541 -178.36
lowerback -6.2289 3.27976 -5.88966
upperback 7.95882 5.85512 -6.37616
thorax 12.3111 2.65915 -2.70373
lowerneck -2.96959 0.273819 0.00971532
upperneck 15.7827 -0.0537642 3.19498
head 5.23028 0.188077 0.990816
rclavicle 1.19271e-014 -1.90833e-014
rhumerus -35.8446 -1.59158 -99.4702
rradius 50.9493
rwrist -4.25045
rhand -17.4524 17.2553
rfingers 7.12502
rthumb 8.79879 -12.5413
lclavicle 1.19271e-014 -1.90833e-014
lhumerus -35.4133 -17.6279 89.3257
lradius 52.5333
lwrist -14.8364
lhand -22.5892 -15.0015
lfingers 7.12502
lthumb 3.83978 14.9436
rfemur -11.2504 -14.8198 16.4192
rtibia 36.7527
rfoot -28.1247 1.77676
rtoes -16.6349
lfemur -12.9844 11.5221 -22.9226
ltibia 34.7663
lfoot -22.8916 -9.51954
ltoes -3.54916
